<?xml version="1.0" encoding="utf-8"?>
<!-- Generator: Adobe Illustrator 22.1.0, SVG Export Plug-In . SVG Version: 6.00 Build 0)  -->
<svg version="1.1" xmlns="http://www.w3.org/2000/svg" xmlns:xlink="http://www.w3.org/1999/xlink" x="0px" y="0px"
	 viewBox="0 0 201 152" style="enable-background:new 0 0 201 152;" xml:space="preserve">
<style type="text/css">
	.st0{display:none;fill:#102027;}
	.st1{fill:#FFEB3B;}
	.st2{fill:#102027;}
</style>
<g id="full_x5F_logo">
</g>
<g id="square">
	<rect id="full_rectangle" x="-48" y="-73" class="st2" width="299" height="299"/>
	<g>
		<path class="st1" d="M199.9,96.5c0.6,0,0.9,0.3,0.9,0.9v52.8c0,0.6-0.3,0.9-0.9,0.9h-43.4c-7.1,0-13.7-1.4-20-4.2
			c-6.2-2.8-11.7-6.7-16.3-11.6c-4.6-4.9-8.3-10.6-11-17c-2.7-6.5-4.1-13.4-4.1-20.8s1.4-14.4,4.1-21c2.7-6.6,6.4-12.3,11-17.2
			c4.6-4.9,10.1-8.7,16.4-11.6c6.3-2.8,13-4.2,20.1-4.2c4.2,0,8.4,0.5,12.5,1.6c4.1,1.1,8,2.7,11.7,4.8c3.7,2.1,7.2,4.6,10.3,7.6
			c3.1,3,5.9,6.3,8.1,10c0.1,0.1,0.1,0.3,0.1,0.5c0,0.3-0.1,0.6-0.3,0.8c-6.7,4.6-13.3,9.2-19.8,13.8c-6.5,4.6-13.2,9.2-19.8,13.8
			H199.9z M107,97.4c0,7.1,1.3,13.8,3.8,20.1c2.6,6.3,6,11.8,10.4,16.4c4.4,4.7,9.5,8.4,15.5,11.2c6,2.8,12.3,4.2,19.1,4.3v-5.7
			c-6-0.1-11.6-1.4-16.9-3.9c-5.3-2.5-9.9-5.8-13.8-10c-3.9-4.2-7-9-9.3-14.6c-2.3-5.6-3.4-11.5-3.4-17.7c0-6.5,1.2-12.5,3.5-18.1
			c2.3-5.6,5.5-10.5,9.5-14.7c4-4.2,8.7-7.5,14.1-9.9c5.4-2.4,11.1-3.6,17.3-3.6c7.2,0,13.9,1.8,20.3,5.2s11.6,8.3,15.7,14.5
			l4.6-3.1c-4.7-7.1-10.6-12.6-17.8-16.6c-7.1-4-14.9-5.9-23.2-5.9c-6.8,0-13.2,1.4-19.2,4.2c-6,2.8-11.2,6.5-15.7,11.2
			c-4.5,4.7-8,10.2-10.6,16.5C108.4,83.6,107,90.3,107,97.4z M114.1,97.6c0,6.1,1.1,11.8,3.4,17.2c2.3,5.4,5.3,10.1,9.1,14.1
			c3.8,4,8.3,7.2,13.5,9.5c5.1,2.3,10.6,3.5,16.4,3.5c0.6,0,0.9,0.3,0.9,0.9v6.6h5.4v-13.2h-6.3c-5,0-9.8-1-14.2-3.1
			c-4.5-2.1-8.4-4.8-11.7-8.3c-3.3-3.5-6-7.6-8-12.2c-2-4.7-3-9.6-3-14.9c0-5.3,1-10.4,2.9-15.1c1.9-4.7,4.5-8.8,7.9-12.3
			c3.3-3.5,7.3-6.3,11.8-8.3c4.5-2.1,9.3-3.1,14.5-3.1c6.1,0,11.8,1.5,17.1,4.4c5.3,2.9,9.7,7,13.1,12.1l4.6-3.1
			c-4-6.1-9.1-10.8-15.3-14.1c-6.1-3.3-12.7-5-19.7-5c-5.9,0-11.4,1.2-16.6,3.5c-5.2,2.4-9.7,5.6-13.5,9.6c-3.8,4.1-6.8,8.8-9,14.2
			C115.2,85.8,114.1,91.6,114.1,97.6z M121.5,97.5c0,5.1,0.9,9.9,2.7,14.4c1.8,4.5,4.3,8.3,7.5,11.6c3.2,3.3,6.9,5.9,11.1,7.9
			c4.2,2,8.8,2.9,13.7,2.9h7.2c0.6,0,0.9,0.3,0.9,0.9v14.2h5.4v-20.8h-13.5c-4.1,0-8-0.8-11.5-2.5s-6.7-3.9-9.3-6.7
			s-4.8-6.1-6.3-9.9c-1.6-3.8-2.4-7.8-2.4-12.1c0-4.3,0.8-8.4,2.4-12.1c1.6-3.8,3.7-7,6.3-9.8c2.7-2.8,5.8-5,9.4-6.6
			c3.6-1.6,7.5-2.5,11.6-2.5c4.8,0,9.4,1.1,13.6,3.4c4.3,2.3,7.8,5.4,10.7,9.6l4.6-3.1c-3.3-4.9-7.6-8.8-12.6-11.5
			c-5.1-2.7-10.5-4.1-16.5-4.1c-4.8,0-9.3,1-13.6,2.9c-4.2,2-7.9,4.6-11.1,7.9c-3.2,3.3-5.7,7.2-7.5,11.7
			C122.4,87.7,121.5,92.4,121.5,97.5z M128.6,97.6c0,4,0.7,7.8,2.2,11.3c1.5,3.5,3.5,6.6,6,9.2c2.5,2.6,5.5,4.7,8.9,6.2
			s7,2.3,10.8,2.3h14.4c0.6,0,0.9,0.3,0.9,0.9v21.7h5.5V121h-20.8c-3.7,0-7.3-0.9-10.6-2.8c-3.3-1.8-6-4.4-8.1-7.7
			c-2.5-3.8-3.7-8.1-3.7-12.9c0-3.2,0.6-6.2,1.8-9.1c1.2-2.9,2.8-5.4,4.8-7.5c2-2.2,4.4-3.9,7.1-5.2c2.7-1.3,5.6-1.9,8.8-1.9
			c3.5,0,7,0.9,10.3,2.6c3.3,1.7,6,4.2,8,7.2l4.6-3.2c-2.7-3.9-6-6.9-10-9.1c-4-2.2-8.3-3.2-12.9-3.2c-3.8,0-7.5,0.8-10.9,2.3
			c-3.4,1.5-6.4,3.6-8.9,6.3c-2.5,2.7-4.5,5.8-5.9,9.4C129.3,89.8,128.6,93.6,128.6,97.6z M136,97.5c0,4.5,1.2,8.5,3.5,12
			c2,3.1,4.4,5.5,7.4,7.2c3,1.7,6.2,2.5,9.7,2.5h21.5c0.6,0,0.9,0.3,0.9,0.9v29.3h5.5v-35.9H171h-14.4c-2.5,0-5-0.6-7.2-1.8
			c-2.3-1.2-4.1-3-5.4-5.2c-1.7-2.7-2.5-5.6-2.5-8.8c0-2.3,0.4-4.4,1.2-6.3c0.8-1.9,1.9-3.6,3.2-5.1c1.4-1.4,3-2.6,4.9-3.5
			c1.9-0.9,3.9-1.3,6-1.3c5.1,0,9.1,2.2,12.1,6.5l4.6-3.2c-2-2.9-4.4-5.1-7.3-6.6c-2.9-1.5-6.1-2.3-9.5-2.3c-2.9,0-5.5,0.6-8,1.7
			c-2.5,1.1-4.7,2.7-6.6,4.6c-1.9,2-3.4,4.3-4.4,6.9C136.5,91.7,136,94.5,136,97.5z M143.1,97.5c0,2.8,0.8,5.4,2.4,7.9
			c2.6,4.2,6.4,6.3,11.2,6.3H171h14.4c0.6,0,0.9,0.3,0.9,0.9v36.8h5.5v-43.4H171h-14.4c-2.3,0-4.1-0.8-5.7-2.5
			c-1.5-1.6-2.3-3.6-2.3-6c0-2.4,0.8-4.4,2.3-6c1.5-1.6,3.4-2.5,5.7-2.5c1.2,0,2.3,0.3,3.5,0.8c1.1,0.5,2.1,1.3,2.9,2.3l4.6-3.2
			c-2.7-3.7-6.4-5.5-10.9-5.5c-1.9,0-3.6,0.4-5.3,1.2c-1.7,0.8-3.1,1.8-4.3,3.1c-1.2,1.3-2.2,2.8-2.9,4.5
			C143.4,93.7,143.1,95.5,143.1,97.5z M150.4,97.5c0,1.7,0.6,3.3,1.9,4.6c1.3,1.3,2.7,2,4.4,2h14.4h21.5c0.6,0,0.9,0.3,0.9,0.9v44.4
			h5.5v-51h-42.8v-0.2H156l-0.1-0.2v-0.2h-0.1v-0.3V97h0.1v-0.2h0.1v-0.2l5.3-3.5c-1.5-1.5-3-2.3-4.7-2.3c-1.7,0-3.2,0.6-4.4,1.9
			C151,94.1,150.4,95.6,150.4,97.5z"/>
	</g>
	<g>
		<path class="st1" d="M58.5,47.9c0.7-0.2,1.4-0.3,2.3-0.5c9.4-1.4,16.7,1.1,21.8,7.5c2.8,3.5,4.5,7.8,5.3,12.8
			c1.7,11.7-5.1,23.4-20.5,35.1c-12.1,9.2-26,16.3-41.9,21.3c-5,1.6-9.5,2.7-13.3,3.2c-1.8,0.3-3.2-0.4-4.2-1.9
			c-0.2-0.4-0.4-0.8-0.4-1.1l0-0.1c-0.4-3.4,3.3-9.1,11.2-17.1c1-6.5,3.8-18.9,8.4-37.2c-1.1,1.1-2.7,2.9-5,5.4
			c-0.5-3.9,1.8-8,6.7-12.5c0.8-2.6,1.8-6.6,3.2-11.7c0.9-3.5,1.6-6.1,2-7.8c-1.2-1.3-3-1.8-5.5-1.4c-1,0.1-3.4,0.7-7.2,1.7
			c-4.8,1.2-8,1.9-9.5,2.2c-4.9,0.7-8.2-0.3-9.9-3C1.3,42,1.1,41.3,1,40.6c-1.1-7.7,4.3-15.8,16.3-24.4C26.8,9.4,36.7,4.5,47.1,1.5
			c2-0.6,3.8-1,5.5-1.2c6.6-1,12.6,0.8,18.1,5.4c4.2,3.5,6.6,7.6,7.3,12.2c1.3,9.1-4.8,18.8-18.2,29C59.3,47.2,58.8,47.6,58.5,47.9z
			 M45.9,26.7c0.1,1.2-1.9,10.7-6.1,28.6c3.2-1.7,4.9-2.6,5.2-2.7c10.6-8,18.2-16.4,22.6-25.2c2.8-5.6,3.8-10.7,3.1-15.4
			c-0.5-3.7-3.1-6.3-7.5-7.7c-2.6-0.9-5.3-1.1-8.2-0.6c-7.1,1-15.7,4.9-25.9,11.5C17.9,22.4,11,29.4,8.6,36c-0.8,2-1,3.9-0.8,5.5
			c0.3,0.9,0.9,1.4,1.6,1.3c0.9-0.1,3.3-0.9,7.3-2.2c4.3-1.4,6.9-2.2,7.9-2.3c4.1-0.5,7.5,0.4,10,2.8c3.7-12.7,5.8-19.1,6.4-19.3
			c0.6,0.1,1.5,0.6,2.7,1.4C45,24.3,45.8,25.5,45.9,26.7z M38.8,59.9c-3.7,15.4-6.9,27.9-9.5,37.6c4.8-3.8,8.6-6.4,11.3-7.8
			c1-0.6,2-1.3,3.2-2c0.8-0.5,1.3-0.7,1.5-0.7l0.1,0.1c-0.1,0.1-1.4,1.3-3.9,3.6c-5,4.4-9.7,8.7-13.9,12.8
			c-2.4,8.4-3.9,12.7-4.4,12.8c-1,0.1-2.4-0.9-4-3.2c-0.2-0.2-0.4-0.5-0.5-0.7c-5.4,5.9-8,10-7.8,12.2c0.3,0.6,0.7,0.9,1.2,0.9
			c5.4-0.8,14-4.7,25.7-11.7C55.2,103.1,67.6,92.5,75,81.7c4.8-7.2,6.9-13.7,6.1-19.5c-1.1-7.5-5-11.4-11.8-11.8
			c-1.8-0.1-3.8,0-6,0.3C53.9,52.1,45.7,55.2,38.8,59.9z"/>
	</g>
</g>
<g id="Layer_3">
</g>
</svg>
