<?xml version="1.0" encoding="utf-8"?>
<!-- Generator: Adobe Illustrator 22.1.0, SVG Export Plug-In . SVG Version: 6.00 Build 0)  -->
<svg version="1.1" xmlns="http://www.w3.org/2000/svg" xmlns:xlink="http://www.w3.org/1999/xlink" x="0px" y="0px"
	 viewBox="0 0 800 300" style="enable-background:new 0 0 800 300;" xml:space="preserve">
<style type="text/css">
	.st0{display:none;fill:#102027;}
	.st1{fill:#FFEB3B;}
	.st2{fill:#102027;}
</style>
<g id="full_x5F_logo">
	<rect id="backdrop" class="st0" width="800" height="300"/>
	<g>
		<path class="st1" d="M136.8,101.2c0.7-0.2,1.6-0.3,2.5-0.4c10.3-1,18,2,23.3,9.1c2.9,3.9,4.6,8.6,5.1,14
			c1.3,12.7-6.6,25-23.8,37.1c-13.5,9.4-28.9,16.4-46.3,21.1c-5.5,1.5-10.3,2.5-14.5,2.9c-2,0.2-3.4-0.5-4.5-2.2
			c-0.2-0.4-0.4-0.9-0.4-1.2l0-0.1c-0.3-3.7,4-9.7,12.9-18c1.4-7,4.9-20.3,10.8-39.8c-1.2,1.2-3.1,3-5.6,5.7
			c-0.3-4.2,2.3-8.6,7.8-13.2c0.9-2.8,2.3-7,3.9-12.6c1.1-3.8,2-6.6,2.5-8.3c-1.2-1.5-3.1-2.1-5.8-1.8c-1.1,0.1-3.8,0.6-7.9,1.5
			c-5.3,1.1-8.7,1.7-10.4,1.9C81,97.3,77.4,96,75.7,93c-0.5-0.8-0.7-1.6-0.8-2.3c-0.9-8.4,5.4-16.9,18.7-25.7
			c10.6-6.9,21.6-11.8,33-14.5c2.2-0.5,4.2-0.9,6-1c7.2-0.7,13.6,1.5,19.3,6.6c4.4,4,6.8,8.5,7.3,13.5c1,9.9-6,20.1-21,30.6
			C137.7,100.5,137.2,100.9,136.8,101.2z M115,113.3c-4.7,16.5-8.7,29.9-12,40.2c5.4-3.8,9.6-6.5,12.6-7.9c1.1-0.6,2.3-1.3,3.6-2.1
			c0.9-0.5,1.4-0.7,1.6-0.7l0.2,0.1c-0.1,0.1-1.6,1.3-4.4,3.7c-5.7,4.5-10.9,8.9-15.6,13.2c-2.9,9-4.7,13.5-5.4,13.7
			c-1.1,0.1-2.5-1.1-4.2-3.7c-0.2-0.3-0.4-0.5-0.5-0.8c-6.2,6.2-9.2,10.5-9,12.8c0.3,0.6,0.7,1,1.2,1c5.9-0.6,15.3-4.4,28.4-11.5
			c19.3-10.5,33.2-21.5,41.7-32.8c5.5-7.5,8-14.5,7.5-20.8c-0.8-8.1-4.9-12.5-12.2-13.3c-1.9-0.2-4.1-0.1-6.5,0.1
			C131.7,105.5,122.7,108.5,115,113.3z M124.2,77.7c0,1.3-2.6,11.5-7.9,30.6c3.5-1.7,5.4-2.6,5.8-2.7c11.9-8.2,20.4-16.9,25.6-26.2
			c3.3-5.9,4.6-11.4,4.1-16.5c-0.4-4-3-6.9-7.8-8.7c-2.7-1-5.7-1.4-8.9-1.1c-7.7,0.8-17.3,4.5-28.5,11.3C94,71.8,86.3,79,83.3,86
			c-0.9,2.2-1.3,4.1-1.1,5.9c0.3,1,0.9,1.5,1.7,1.5c0.9-0.1,3.6-0.8,8-2.1c4.7-1.3,7.6-2,8.7-2.2c4.5-0.4,8,0.8,10.7,3.4
			c4.6-13.6,7.1-20.4,7.8-20.6c0.7,0.1,1.6,0.7,2.9,1.7C123.3,75.1,124.1,76.4,124.2,77.7z"/>
		<path class="st1" d="M206.9,91.6c0.4,1,0.6,2,0.7,3l0.1,0.7c0.1,2-0.1,5.5-0.8,10.5c1.1,2.3,2.2,3.5,3.3,3.5
			c1.8-0.2,3.6-1.5,5.4-3.9c1.8-2.4,3.2-4.7,4.1-7l1.3-3.4l2.4,2.3l-3.5,7c-4,6.8-7.7,10.5-11.2,10.9c-1.1,0.1-2.3-0.1-3.5-0.6
			c-3.4,13.3-8.5,21.1-15.4,23.6c-1,0.4-2,0.6-3,0.7c-5.3,0.5-9.3-1.4-12.1-6c-1.3-2.1-2-4.6-2.3-7.5c-0.8-7.9,0.7-16.2,4.5-24.8
			c5-10.2,11.1-15.8,18.5-16.9c5.2-0.5,8.7,0.9,10.5,4.4c0.5,1,0.8,2,0.9,3.2L206.9,91.6z M198.7,90.5c-4.5,0.5-8.8,5.6-12.9,15.3
			c-3.5,8.9-5.2,16.1-5,21.6c0.6,4.3,2.9,6.3,7,5.9c4-0.4,7.9-5.8,11.8-16c0.7-1.8,1.3-3.6,1.8-5.4c-2.2-2.7-3.5-6.2-3.9-10.5
			c-0.4-4.4,0.4-7.8,2.2-10.1C199.5,90.7,199.2,90.4,198.7,90.5z"/>
		<path class="st1" d="M242.1,94.4c-4.9,6.9-11.3,18.7-19,35.4c-0.5,1.2-0.9,2-1.2,2.5c-1.6,3-3.1,4.6-4.6,4.9
			c-3.2,0.3-5.1-0.7-5.7-3.1c-0.1-0.4-0.2-0.7-0.2-1c-0.2-2.4,1.9-13.1,6.5-32c3.1-12.9,5.1-19.4,5.9-19.5c1.4-0.1,3,0.8,4.7,2.8
			c1,1.3,1.5,2.5,1.6,3.6c0.1,1.2-0.2,3.6-1,7.3c-0.8,3.7-1.5,7-2.4,10.1l-1.1,4.6l0.9,0.3l8.7-14.9c7-11.1,11.7-16.8,14.1-17.1
			c1.4-0.1,2.8,0.7,4.3,2.4c0.6,0.7,1,1.4,1.1,2c0,0.4-0.3,1.9-1.1,4.6c-1.9,6.9-2.8,11.4-2.6,13.4c0.1,1,0.9,1.8,2.5,2.4
			c0.6,0.1,1.1,0.2,1.4,0.1c1.8-0.2,3.7-1.3,5.7-3.5c2-2.1,3.5-4.2,4.5-6.3l1.7-3.1l2.4,2.3c-3.2,6.7-7.1,11.7-11.6,14.8
			c-2.3,1.5-4.5,2.3-6.7,2.5c-3.6,0.4-6.3-1.6-8-6c-0.5-1.5-0.9-3.1-1-4.7c0-0.3,0-1,0.1-2.3C242.1,95.7,242.1,94.8,242.1,94.4z"/>
		<path class="st1" d="M276.1,129.6c-6.4,0.7-11.2-1.3-14.4-5.7c-1.5-2.2-2.3-4.8-2.6-7.6c-0.8-7.9,1.2-16.5,6-25.6
			c4.5-8.6,9.5-13.6,15-15.2c0.6-0.1,1.2-0.3,1.8-0.3c4.6-0.5,7.5,1.7,8.7,6.5c0.2,0.7,0.3,1.5,0.4,2.2c0.9,9.1-6.1,19.4-21,30.8
			c-0.4,0.3-0.8,0.6-1.2,0.8c0.7,3.9,3,6.4,6.8,7.5c1.5,0.4,2.8,0.6,4.1,0.4c2.5-0.3,5.2-1.7,8-4.3c2.8-2.6,5.3-5.7,7.5-9.3
			c2.2-3.6,4.1-7.1,5.9-10.6c1.8-3.5,3.1-6.5,4.1-9l1.5-3.7l2.4,2.3c-9.3,24.5-19.6,38-30.9,40.6
			C277.4,129.5,276.7,129.6,276.1,129.6z M269.2,106c10.1-8.1,14.9-15.3,14.3-21.7c-0.2-1-0.5-1.5-1-1.6c-2.3,0.2-5.1,3.5-8.3,9.8
			C271.8,97.1,270.1,101.6,269.2,106z"/>
		<path class="st1" d="M323.4,112.5c-4.8,7.8-8.6,12-11.6,12.4c-5.1,0.5-9.1-1.7-12-6.6c-1.4-2.3-2.2-4.9-2.5-7.7
			c-0.8-7.8,1.6-16.5,7.2-26c4.3-7.2,8.5-11.6,12.5-13c0.5-0.1,1-0.2,1.4-0.3c3.5-0.4,6.5,2,8.8,7c0.5,1.1,0.9,2.1,1.2,3.1
			c3.4-13.5,7.8-25.5,13.3-36c4.6-8.6,8.7-13.1,12.3-13.6c2.7-0.3,4.8,1.1,6.2,4.2c0.5,1.2,0.8,2.4,0.9,3.6
			c0.8,7.8-3.8,19-13.8,33.5c-2.9,4.2-5.9,8.1-9.1,12c-3.4,12.5-5.3,19.4-5.5,20.8c-0.7,3.5-0.9,6.1-0.7,8c0.4,3.3,1.7,5,3.7,4.8
			c0.7-0.1,2.9-3.2,6.4-9.5c3.5-6.2,6.8-12.5,10-18.6l4.6-9.4l2.5,2.3l-8.6,19.3c-6.6,14-11,21.1-13.4,21.3c-4,0.4-7.6-1.2-10.8-5
			c-1.7-2.1-2.7-4.2-2.9-6.2L323.4,112.5z M321.5,87.4c0-0.3,0.3-2.2,1.1-5.6c0.2-0.9,0.3-1.5,0.2-1.9c-0.2-1.5-1-2.2-2.2-2.2
			c-3.8,0.4-7.5,6.3-10.9,17.7c-2.8,9.1-4,15.9-3.6,20.2c0.3,2.3,1,3.5,1.9,3.6c0.8-0.3,3.5-4.2,8-11.8c0.3-0.6,0.7-1.2,1.1-1.9
			c0.4-0.7,0.8-1.4,1.3-2.2c0.4-0.8,0.9-1.6,1.4-2.4c0.5-0.8,0.9-1.6,1.4-2.5c0.4-0.8,0.8-1.6,1.2-2.4c0.4-0.7,0.8-1.4,1.1-2.1
			c0.4-0.6,0.7-1.2,0.9-1.7c0.2-0.5,0.4-0.9,0.6-1.2l0.2-0.6l-2.3-1.3C322.1,88.3,321.7,87.8,321.5,87.4z M340.4,76
			c7.7-10.1,13-19.4,15.7-27.8c1.1-3.3,1.5-6,1.3-8.2c-0.2-1.1-0.7-1.8-1.3-2.1c-2.8,0.3-7.6,11.6-14.5,34
			C341.2,73.4,340.8,74.7,340.4,76z"/>
	</g>
	<g>
		<path class="st1" d="M307.2,210.5c0.6,0,0.9,0.3,0.9,0.9v52.8c0,0.6-0.3,0.9-0.9,0.9h-45.3c-7.4,0-14.4-1.4-20.9-4.2
			c-6.5-2.8-12.2-6.7-17-11.6c-4.8-4.9-8.7-10.6-11.5-17c-2.8-6.5-4.2-13.4-4.2-20.8s1.4-14.4,4.2-21c2.8-6.6,6.6-12.3,11.5-17.2
			c4.8-4.9,10.5-8.7,17.1-11.6c6.6-2.8,13.6-4.2,21-4.2c4.4,0,8.8,0.5,13,1.6c4.3,1.1,8.3,2.7,12.2,4.8c3.9,2.1,7.5,4.6,10.8,7.6
			c3.3,3,6.1,6.3,8.5,10c0.1,0.1,0.2,0.3,0.2,0.5c0,0.3-0.1,0.6-0.3,0.8c-7,4.6-13.9,9.2-20.7,13.8c-6.8,4.6-13.7,9.2-20.7,13.8
			H307.2z M210.3,211.4c0,7.1,1.3,13.8,4,20.1c2.7,6.3,6.3,11.8,10.9,16.4c4.6,4.7,10,8.4,16.2,11.2c6.2,2.8,12.9,4.2,19.9,4.3v-5.7
			c-6.3-0.1-12.1-1.4-17.6-3.9c-5.5-2.5-10.3-5.8-14.4-10c-4.1-4.2-7.3-9-9.7-14.6c-2.4-5.6-3.5-11.5-3.5-17.7
			c0-6.5,1.2-12.5,3.6-18.1c2.4-5.6,5.7-10.5,9.9-14.7c4.2-4.2,9.1-7.5,14.7-9.9c5.6-2.4,11.6-3.6,18.1-3.6c7.5,0,14.6,1.8,21.2,5.2
			c6.6,3.5,12.1,8.3,16.4,14.5l4.8-3.1c-4.9-7.1-11.1-12.6-18.6-16.6c-7.4-4-15.5-5.9-24.3-5.9c-7.1,0-13.8,1.4-20,4.2
			c-6.3,2.8-11.7,6.5-16.4,11.2c-4.7,4.7-8.4,10.2-11.1,16.5C211.7,197.6,210.3,204.3,210.3,211.4z M217.7,211.6
			c0,6.1,1.2,11.8,3.5,17.2c2.4,5.4,5.5,10.1,9.5,14.1c4,4,8.7,7.2,14.1,9.5c5.4,2.3,11.1,3.5,17.1,3.5c0.6,0,0.9,0.3,0.9,0.9v6.6
			h5.7v-13.2h-6.6c-5.2,0-10.2-1-14.9-3.1c-4.7-2.1-8.8-4.8-12.2-8.3c-3.5-3.5-6.3-7.6-8.3-12.2c-2.1-4.7-3.1-9.6-3.1-14.9
			c0-5.3,1-10.4,3-15.1c2-4.7,4.7-8.8,8.2-12.3c3.5-3.5,7.6-6.3,12.3-8.3c4.7-2.1,9.8-3.1,15.1-3.1c6.4,0,12.3,1.5,17.9,4.4
			c5.5,2.9,10.1,7,13.7,12.1l4.8-3.1c-4.2-6.1-9.5-10.8-15.9-14.1c-6.4-3.3-13.3-5-20.6-5c-6.2,0-11.9,1.2-17.3,3.5
			c-5.4,2.4-10.1,5.6-14.1,9.6c-4,4.1-7.1,8.8-9.4,14.2C218.8,199.8,217.7,205.6,217.7,211.6z M225.4,211.5c0,5.1,0.9,9.9,2.8,14.4
			c1.9,4.5,4.5,8.3,7.8,11.6c3.3,3.3,7.2,5.9,11.6,7.9c4.4,2,9.2,2.9,14.3,2.9h7.5c0.6,0,0.9,0.3,0.9,0.9v14.2h5.7v-20.8H262
			c-4.3,0-8.3-0.8-12.1-2.5s-7-3.9-9.7-6.7c-2.8-2.8-5-6.1-6.6-9.9c-1.6-3.8-2.5-7.8-2.5-12.1c0-4.3,0.8-8.4,2.5-12.1
			c1.6-3.8,3.9-7,6.6-9.8s6-5,9.8-6.6c3.7-1.6,7.8-2.5,12.1-2.5c5,0,9.8,1.1,14.2,3.4c4.5,2.3,8.2,5.4,11.2,9.6l4.8-3.1
			c-3.5-4.9-7.9-8.8-13.2-11.5c-5.3-2.7-11-4.1-17.2-4.1c-5,0-9.8,1-14.2,2.9c-4.4,2-8.3,4.6-11.6,7.9c-3.3,3.3-6,7.2-7.9,11.7
			C226.4,201.7,225.4,206.4,225.4,211.5z M232.8,211.6c0,4,0.8,7.8,2.3,11.3c1.5,3.5,3.6,6.6,6.3,9.2c2.7,2.6,5.8,4.7,9.3,6.2
			s7.3,2.3,11.3,2.3h15c0.6,0,0.9,0.3,0.9,0.9v21.7h5.7V235h-21.7c-3.9,0-7.6-0.9-11.1-2.8c-3.5-1.8-6.3-4.4-8.5-7.7
			c-2.6-3.8-3.9-8.1-3.9-12.9c0-3.2,0.6-6.2,1.8-9.1c1.2-2.9,2.9-5.4,5-7.5c2.1-2.2,4.6-3.9,7.4-5.2c2.8-1.3,5.9-1.9,9.2-1.9
			c3.7,0,7.3,0.9,10.7,2.6c3.4,1.7,6.2,4.2,8.4,7.2l4.8-3.2c-2.8-3.9-6.2-6.9-10.4-9.1c-4.2-2.2-8.7-3.2-13.5-3.2
			c-4,0-7.8,0.8-11.4,2.3c-3.6,1.5-6.7,3.6-9.3,6.3c-2.6,2.7-4.7,5.8-6.2,9.4C233.6,203.8,232.8,207.6,232.8,211.6z M240.5,211.5
			c0,4.5,1.2,8.5,3.7,12c2,3.1,4.6,5.5,7.7,7.2c3.1,1.7,6.5,2.5,10.2,2.5h22.5c0.6,0,0.9,0.3,0.9,0.9v29.3h5.7v-35.9h-14.1h-15
			c-2.7,0-5.2-0.6-7.5-1.8s-4.2-3-5.7-5.2c-1.7-2.7-2.6-5.6-2.6-8.8c0-2.3,0.4-4.4,1.2-6.3c0.8-1.9,1.9-3.6,3.4-5.1
			c1.4-1.4,3.1-2.6,5.1-3.5c1.9-0.9,4.1-1.3,6.3-1.3c5.3,0,9.6,2.2,12.6,6.5l4.8-3.2c-2.1-2.9-4.6-5.1-7.6-6.6
			c-3-1.5-6.3-2.3-9.9-2.3c-3,0-5.8,0.6-8.4,1.7c-2.6,1.1-4.9,2.7-6.9,4.6c-2,2-3.5,4.3-4.6,6.9
			C241.1,205.7,240.5,208.5,240.5,211.5z M247.9,211.5c0,2.8,0.8,5.4,2.5,7.9c2.8,4.2,6.7,6.3,11.7,6.3h15h15c0.6,0,0.9,0.3,0.9,0.9
			v36.8h5.7v-43.4h-21.7H262c-2.4,0-4.3-0.8-5.9-2.5c-1.6-1.6-2.4-3.6-2.4-6c0-2.4,0.8-4.4,2.4-6c1.6-1.6,3.6-2.5,5.9-2.5
			c1.2,0,2.4,0.3,3.6,0.8c1.2,0.5,2.2,1.3,3,2.3l4.8-3.2c-2.9-3.7-6.7-5.5-11.4-5.5c-1.9,0-3.8,0.4-5.5,1.2
			c-1.7,0.8-3.3,1.8-4.5,3.1c-1.3,1.3-2.3,2.8-3,4.5C248.3,207.7,247.9,209.5,247.9,211.5z M255.6,211.5c0,1.7,0.7,3.3,2,4.6
			c1.3,1.3,2.9,2,4.6,2h15h22.5c0.6,0,0.9,0.3,0.9,0.9v44.4h5.7v-51h-44.7v-0.2h-0.2l-0.2-0.2v-0.2h-0.2v-0.3V211h0.2v-0.2h0.2v-0.2
			l5.5-3.5c-1.5-1.5-3.2-2.3-4.9-2.3c-1.8,0-3.3,0.6-4.6,1.9C256.2,208.1,255.6,209.6,255.6,211.5z"/>
		<path class="st1" d="M423.5,265.1l-0.2,0.2v0.2h-0.2v0.2h-0.2v0.2H316.6v-0.2h-0.2l-0.2-0.2v-0.2h-0.2v-0.3v-0.5h0.2L369,158.9
			c0.1-0.3,0.4-0.5,0.8-0.5c0.4,0,0.7,0.2,0.9,0.5c0.4,0.9,1.5,3.2,3.3,6.7c1.8,3.5,4,7.9,6.5,13c2.5,5.1,5.3,10.8,8.5,17
			c3.1,6.2,6.3,12.5,9.5,18.9c3.2,6.4,6.3,12.6,9.3,18.6c3,6,5.7,11.3,8,16c2.3,4.7,4.9,9.8,7.8,15.5v0.2V265.1z M421.1,264
			l-51.3-102.6L318.5,264h69l-2.9-5.9h-55.8V258h-0.2v-0.2h-0.2v-0.2l-0.2-0.2v-0.3v-0.3h0.2l40.5-81.2c0.1-0.3,0.4-0.5,0.8-0.5
			c0.4,0,0.7,0.2,0.9,0.5l44.1,88.3H421.1z M412.7,264l-43-85.8l-39.1,78.3h53l-2.9-5.9H341v-0.2h-0.2v-0.2h-0.2v-0.2l-0.2-0.2v-0.2
			v-0.3h0.2v-0.2l28.3-56.5c0.1-0.3,0.4-0.5,0.8-0.5c0.4,0,0.7,0.2,0.9,0.5l35.6,71.3H412.7z M404.3,264l-34.5-69L343,248.8h37
			l-2.9-5.7h-23.4v-0.2h-0.5v-0.2H353v-0.2h-0.2v-0.5h-0.2V242h0.2v-0.3l16.2-32.2c0.1-0.3,0.4-0.5,0.8-0.5c0.4,0,0.7,0.2,0.9,0.5
			l27.1,54.5H404.3z M395.8,264l-26-52.1l-14.6,29.3h21l-2.8-5.6h-7.5l-0.3-0.1h-0.2v-0.2h-0.2v-0.1H365v-0.5v-0.5l4-8
			c0.1-0.3,0.4-0.5,0.8-0.5c0.4,0,0.7,0.2,0.9,0.5l3.9,8h0.2c2.4,5,4.8,10,7.3,14.9c2.5,4.9,5,9.9,7.5,14.8H395.8z M369.8,228.7
			l-2.5,5.1h5.1L369.8,228.7z"/>
		<path class="st1" d="M551.5,158.3c0.6,0,0.9,0.3,0.9,0.9v105.5c0,0.5-0.3,0.8-0.9,0.8h-30.2c-0.6,0-0.9-0.3-0.9-0.8v-51.5
			L494.1,250h-0.2v0.2h-0.2l-0.2,0.2h-0.3c-0.4,0-0.7-0.1-0.8-0.3L466,213.3v51.5c0,0.5-0.3,0.8-0.9,0.8h-30.2
			c-0.5,0-0.8-0.3-0.8-0.8V159.2c0-0.6,0.3-0.9,0.8-0.9h30.7v0.2h0.2c2.7,3.6,5,6.7,6.9,9.4c1.9,2.7,4,5.6,6.3,8.7
			c2.3,3.1,4.5,6.1,6.5,8.9c2,2.8,3.7,5.3,5.2,7.3c1.5,2.1,2.4,3.3,2.7,3.7l27.4-37.9v-0.2h0.2l0.2-0.2H551.5z M436,263.8h5.7V160
			H436V263.8z M443.5,263.8h5.5V160h-5.5V263.8z M456.6,160h-5.5v103.8h5.5V160z M464.2,160h-5.7v103.8h5.7V160z M466,162v9.7
			l27.3,37.6c4.6-6.3,9.1-12.5,13.6-18.8c4.4-6.3,8.9-12.5,13.6-18.8V162l-26.3,36.5h-0.2v0.2h-0.2v0.2h-0.3v0.2h-0.2h-0.2l-0.2-0.2
			h-0.3v-0.2h-0.2v-0.2L466,162z M520.4,174.8l-26.3,36.7h-0.2v0.2h-0.2l-0.2,0.2h-0.3H493l-0.3-0.2v-0.2h-0.2
			c-4.5-6.2-9-12.3-13.3-18.3c-4.4-6.1-8.8-12.2-13.2-18.3v9.7l27.3,37.7l27.1-37.7V174.8z M520.4,197.5v-9.7l-26.3,36.5h-0.2v0.2
			h-0.2l-0.2,0.2h-0.3h-0.5l-0.2-0.2h-0.2v-0.2L466,187.7v9.7l27.3,37.6L520.4,197.5z M520.4,210.2v-9.7L494.1,237l-0.3,0.3h-0.2
			v0.2h-0.3H493l-0.2-0.2h-0.2v-0.2h-0.2V237L466,200.5v9.7l27.3,37.6L520.4,210.2z M522.3,263.8h5.7V160h-5.7V263.8z M529.8,263.8
			h5.7V160h-5.7V263.8z M543.1,160h-5.7v103.8h5.7V160z M550.6,160h-5.7v103.8h5.7V160z"/>
		<path class="st1" d="M640.7,158.3c0.6,0,0.9,0.3,0.9,0.9v15.1v7.5v7.5c0,0.6-0.3,0.9-0.9,0.9h-44.2v5.7h26.7
			c0.6,0,0.9,0.3,0.9,0.9v30.2c0,0.5-0.3,0.8-0.9,0.8h-26.7v5.7h44.2c0.6,0,0.9,0.3,0.9,0.8v7.6v7.6v15.2c0,0.6-0.3,0.9-0.9,0.9
			h-75.3c-0.6,0-0.9-0.3-0.9-0.9V159.2c0-0.6,0.3-0.9,0.9-0.9H640.7z M640,160.2h-73.6v5.7H640V160.2z M640,167.7h-73.6v5.7H640
			V167.7z M640,175.3h-73.6v5.7h29.3h15.1H640V175.3z M640,182.8h-29.3h-15.1h-29.3v5.7H640V182.8z M566.3,233.7h5.7v-43.3h-5.7
			V233.7z M566.3,235.5v5.7h29.3H640v-5.7H566.3z M640,243.1h-44.4h-29.3v5.7H640V243.1z M640,250.6h-73.6v5.7H640V250.6z
			 M640,258.1h-73.6v5.7H640V258.1z M579.6,233.7v-43.3h-5.7v43.3H579.6z M587.1,233.7v-43.3h-5.7v43.3H587.1z M594.7,233.7v-29.2
			v-14.1H589v43.3H594.7z M596.5,197.9v5.7h25.7v-5.7H596.5z M622.2,205.5h-25.7v5.5h25.7V205.5z M622.2,213h-25.7v5.5h25.7V213z
			 M622.2,220.4h-25.7v5.7h25.7V220.4z"/>
		<path class="st1" d="M717.3,158.9c0,0.5,0,1.6,0,3.3c0,1.7,0,3.7,0,5.9c0,2.3,0,4.6,0,7.2c0,2.5,0,4.8-0.1,6.9
			c-0.1,2.1-0.1,3.9-0.2,5.2c-0.1,1.4-0.1,2.1-0.1,2.2h-0.2c-0.2,0.2-0.4,0.3-0.6,0.3h-30.7l22.3,22.3c3,3,5.2,6.3,6.8,10.1
			c1.5,3.8,2.3,7.7,2.3,11.8c0,4.3-0.8,8.4-2.5,12.2c-1.6,3.8-3.9,7.1-6.6,9.9c-2.8,2.8-6.1,5-9.9,6.6c-3.8,1.6-7.9,2.5-12.2,2.5
			h-32.7c-0.6,0-0.9-0.3-0.9-0.9v-30.3c0-0.3,0.3-0.5,0.8-0.7c0.6-0.2,1.2-0.2,2-0.2c0.8,0,1.5,0,2.2,0.1c0.7,0.1,1.2,0.1,1.5,0.1
			h24.8l-22.3-22.4c-6.1-6-9.1-13.3-9.1-21.8c0-4.3,0.8-8.3,2.5-12.1c1.6-3.7,3.9-7,6.7-9.8c2.8-2.8,6.1-5,9.9-6.7
			c3.7-1.6,7.8-2.5,12.1-2.5h33l0.3,0.2h0.2c0.2,0.2,0.4,0.4,0.5,0.6V158.9z M654.1,189.1c0,3.8,0.7,7.5,2.2,11.1
			c1.5,3.6,3.6,6.8,6.2,9.5l24,23.8c0.1,0.1,0.2,0.4,0.2,0.8c0,0.5-0.3,0.8-0.9,0.8h-31.7v5.8h31.7c1.8,0,3.4-0.6,4.8-1.9
			c1.3-1.3,2-2.9,2-4.7c0-1.7-0.7-3.3-2-4.6l-23.9-23.9c-4.6-4.6-6.9-10.2-6.9-16.6c0-3.2,0.6-6.2,1.8-9.1c1.2-2.9,2.9-5.4,5.1-7.5
			c2.2-2.2,4.6-3.9,7.5-5.1c2.8-1.2,5.9-1.8,9.2-1.8h32v-5.7h-32c-4,0-7.8,0.8-11.4,2.3c-3.6,1.5-6.7,3.6-9.3,6.2
			c-2.6,2.6-4.7,5.7-6.2,9.3C654.9,181.3,654.1,185.1,654.1,189.1z M694.3,234.3c0,2.4-0.8,4.4-2.5,6c-1.6,1.6-3.6,2.5-6,2.5h-31.7
			v5.7h31.7c1.9,0,3.8-0.4,5.5-1.1c1.7-0.7,3.3-1.7,4.5-3c1.3-1.3,2.3-2.8,3-4.5c0.7-1.7,1.1-3.6,1.1-5.5c0-1.7-0.3-3.5-1-5.3
			c-0.7-1.8-1.7-3.4-3-4.7l-24-23.9c-3.1-3.1-4.6-6.8-4.6-11.2c0-2.2,0.4-4.2,1.2-6.2c0.8-1.9,2-3.7,3.5-5.2
			c1.5-1.5,3.2-2.6,5.2-3.5c1.9-0.8,4-1.2,6.2-1.2h32v-5.5h-32c-3,0-5.8,0.6-8.5,1.7c-2.7,1.1-5,2.7-6.9,4.6c-2,1.9-3.5,4.3-4.6,6.9
			c-1.1,2.7-1.7,5.5-1.7,8.5c0,5.9,2.1,11,6.3,15.2l23.9,24C693.5,230.1,694.3,232,694.3,234.3z M715.1,234.3
			c0-3.9-0.7-7.6-2.2-11.2c-1.4-3.5-3.5-6.7-6.3-9.5c-0.3-0.3-1.1-1.1-2.5-2.5c-1.3-1.3-2.9-2.9-4.7-4.7c-1.8-1.8-3.7-3.7-5.7-5.7
			c-2-2-3.9-3.9-5.5-5.5c-1.7-1.7-3.1-3.1-4.2-4.2c-1.1-1.1-1.6-1.7-1.6-1.8c0-0.6,0.3-0.9,0.9-0.9h31.9l0.2-5.7h-32
			c-1.8,0-3.4,0.6-4.7,1.9c-1.3,1.3-1.9,2.9-1.9,4.7s0.6,3.4,1.8,4.6l23.9,23.9c2.2,2.2,3.9,4.7,5.1,7.6c1.2,2.9,1.8,5.9,1.8,9
			c0,3.3-0.6,6.4-1.8,9.2c-1.2,2.9-2.9,5.4-5,7.5c-2.1,2.1-4.6,3.8-7.5,5c-2.9,1.2-6,1.8-9.2,1.8h-31.7v5.7h31.7
			c4,0,7.8-0.8,11.4-2.3c3.6-1.5,6.7-3.6,9.3-6.2c2.6-2.6,4.7-5.7,6.2-9.3C714.4,242.1,715.1,238.3,715.1,234.3z M686,256
			c3,0,5.8-0.6,8.5-1.7c2.7-1.1,5-2.7,6.9-4.6c1.9-1.9,3.4-4.3,4.5-6.9c1.1-2.7,1.6-5.5,1.6-8.5c0-6-2.1-11-6.3-15.3l-23.9-23.9
			c-1.6-1.6-2.5-3.6-2.5-6c0-2.4,0.8-4.4,2.5-6c1.6-1.6,3.6-2.5,6-2.5h32V175h-32c-2,0-3.8,0.4-5.5,1.1c-1.7,0.7-3.3,1.7-4.5,3
			c-1.3,1.3-2.3,2.8-3,4.5c-0.7,1.7-1.1,3.6-1.1,5.5c0,3.9,1.4,7.2,4.2,10l24,23.9c1.4,1.4,2.6,3.2,3.4,5.2c0.8,2,1.2,4,1.2,6.1
			c0,4.5-1.5,8.3-4.6,11.4s-6.9,4.6-11.4,4.6h-31.7v5.7H686z"/>
	</g>
</g>
<g id="square">
</g>
<g id="Layer_3">
</g>
</svg>
